<svg viewBox="0 0 16 16" xmlns="http://www.w3.org/2000/svg" shape-rendering="crispEdges">
  <rect x="6" y="1" width="1" height="1" fill="rgb(217,172,105)" />
  <rect x="5" y="2" width="1" height="1" fill="rgb(234,209,172)" />
  <rect x="6" y="2" width="1" height="1" fill="rgb(234,209,172)" />
  <rect x="7" y="2" width="1" height="1" fill="rgb(249,242,231)" />
  <rect x="4" y="3" width="1" height="1" fill="rgb(234,209,172)" />
  <rect x="5" y="3" width="1" height="1" fill="rgb(234,209,172)" />
  <rect x="6" y="3" width="1" height="1" fill="rgb(241,225,200)" />
  <rect x="7" y="3" width="1" height="1" fill="rgb(227,193,142)" />
  <rect x="3" y="4" width="1" height="1" fill="rgb(234,209,172)" />
  <rect x="4" y="4" width="1" height="1" fill="rgb(234,209,172)" />
  <rect x="5" y="4" width="1" height="1" fill="rgb(234,209,172)" />
  <rect x="6" y="4" width="1" height="1" fill="rgb(241,225,200)" />
  <rect x="8" y="4" width="1" height="1" fill="rgb(231,202,159)" />
  <rect x="4" y="5" width="1" height="1" fill="rgb(49,34,12)" />
  <rect x="5" y="5" width="1" height="1" fill="rgb(234,209,172)" />
  <rect x="6" y="5" width="1" height="1" fill="rgb(241,225,200)" />
  <rect x="9" y="5" width="1" height="1" fill="rgb(217,172,105)" />
  <rect x="10" y="6" width="1" height="1" fill="rgb(217,172,105)" />
  <rect x="11" y="7" width="1" height="1" fill="rgb(217,172,105)" />
  <rect x="12" y="8" width="1" height="1" fill="rgb(246,235,219)" />
  <rect x="11" y="10" width="1" height="1" fill="rgb(129,90,32)" />
  <rect x="11" y="11" width="1" height="1" fill="rgb(85,59,21)" />
  <rect x="10" y="12" width="1" height="1" fill="rgb(218,173,105)" />
  <rect x="9" y="13" width="1" height="1" fill="rgb(234,208,170)" />
  <rect x="10" y="13" width="1" height="1" fill="rgb(234,208,170)" />
  <rect x="11" y="13" width="1" height="1" fill="rgb(234,208,170)" />
  <rect x="8" y="14" width="1" height="1" fill="rgb(241,224,198)" />
  <rect x="9" y="14" width="1" height="1" fill="rgb(241,224,198)" />
  <rect x="10" y="14" width="1" height="1" fill="rgb(241,224,198)" />
  <rect x="11" y="14" width="1" height="1" fill="rgb(241,224,198)" />
  <rect x="12" y="14" width="1" height="1" fill="rgb(241,224,198)" />
</svg>
