<svg viewBox="0 0 16 16" xmlns="http://www.w3.org/2000/svg" shape-rendering="crispEdges">
  <rect x="6" y="1" width="1" height="1" fill="rgb(85,103,103)" />
  <rect x="5" y="2" width="1" height="1" fill="rgb(7,68,97)" />
  <rect x="6" y="2" width="1" height="1" fill="rgb(7,68,97)" />
  <rect x="7" y="2" width="1" height="1" fill="rgb(2,26,28)" />
  <rect x="4" y="3" width="1" height="1" fill="rgb(7,68,97)" />
  <rect x="5" y="3" width="1" height="1" fill="rgb(7,68,97)" />
  <rect x="6" y="3" width="1" height="1" fill="rgb(4,45,65)" />
  <rect x="7" y="3" width="1" height="1" fill="rgb(33,80,108)" />
  <rect x="3" y="4" width="1" height="1" fill="rgb(7,68,97)" />
  <rect x="4" y="4" width="1" height="1" fill="rgb(7,68,97)" />
  <rect x="5" y="4" width="1" height="1" fill="rgb(7,68,97)" />
  <rect x="6" y="4" width="1" height="1" fill="rgb(4,45,65)" />
  <rect x="8" y="4" width="1" height="1" fill="rgb(30,73,90)" />
  <rect x="4" y="5" width="1" height="1" fill="rgb(254,255,255)" />
  <rect x="5" y="5" width="1" height="1" fill="rgb(7,68,97)" />
  <rect x="6" y="5" width="1" height="1" fill="rgb(4,45,65)" />
  <rect x="9" y="5" width="1" height="1" fill="rgb(38,114,150)" />
  <rect x="10" y="6" width="1" height="1" fill="rgb(38,114,150)" />
  <rect x="11" y="7" width="1" height="1" fill="rgb(38,114,150)" />
  <rect x="12" y="8" width="1" height="1" fill="rgb(4,27,41)" />
  <rect x="11" y="10" width="1" height="1" fill="rgb(168,182,167)" />
  <rect x="11" y="11" width="1" height="1" fill="rgb(206,214,190)" />
  <rect x="10" y="12" width="1" height="1" fill="rgb(42,113,145)" />
  <rect x="9" y="13" width="1" height="1" fill="rgb(11,68,95)" />
  <rect x="10" y="13" width="1" height="1" fill="rgb(11,68,95)" />
  <rect x="11" y="13" width="1" height="1" fill="rgb(11,68,95)" />
  <rect x="8" y="14" width="1" height="1" fill="rgb(11,37,60)" />
  <rect x="9" y="14" width="1" height="1" fill="rgb(11,37,60)" />
  <rect x="10" y="14" width="1" height="1" fill="rgb(11,37,60)" />
  <rect x="11" y="14" width="1" height="1" fill="rgb(11,37,60)" />
  <rect x="12" y="14" width="1" height="1" fill="rgb(11,37,60)" />
</svg>
